<svg class="MuiSvgIcon-root MuiSvgIcon-fontSizeMedium css-b933ss" focusable="false" aria-hidden="true" viewBox="0 0 20 24" width="20" height="24" fill="none" xmlns="http://www.w3.org/2000/svg"><path d="M19.3333 9.66681C18.534 8.30155 17.2391 7.2971 15.7179 6.86249C14.1967 6.42787 12.5666 6.59657 11.1667 7.33347V1.50014H8.83333V7.33347C7.43341 6.59657 5.80325 6.42787 4.2821 6.86249C2.76094 7.2971 1.46597 8.30155 0.666666 9.66681C-1.66667 13.1668 4.16667 23.6668 6.5 23.6668C8.83333 23.6668 8.83333 22.5001 10 22.5001C11.1667 22.5001 11.1667 23.6668 13.5 23.6668C15.8333 23.6668 21.6667 13.1668 19.3333 9.66681ZM17.2917 13.6101C16.5683 16.4918 15.145 19.1401 13.15 21.3335C12.9167 21.3335 12.6483 21.2168 12.45 21.0418C11.7566 20.4811 10.8918 20.1752 10 20.1752C9.10823 20.1752 8.24345 20.4811 7.55 21.0418C7.35167 21.2168 7.08333 21.3335 6.85 21.3335C4.84945 19.1475 3.42591 16.4969 2.70833 13.6218C2.41667 12.7701 2.35833 11.8485 2.60333 10.9735C2.9354 10.3814 3.41509 9.88543 3.99572 9.53378C4.57636 9.18213 5.23814 8.9868 5.91667 8.96681C6.57 8.97847 7.21167 9.13014 7.795 9.42181L8.83333 9.94681H11.1667L12.205 9.42181C12.7883 9.13014 13.43 8.97847 14.0833 8.96681C15.46 9.00181 16.72 9.76014 17.3967 10.9618C17.6417 11.8368 17.5833 12.7585 17.2917 13.6101ZM8.83333 3.83347C2.27667 7.41514 0.794999 2.41014 0.794999 2.41014C0.794999 2.41014 3.89833 -1.77819 8.83333 3.83347Z" fill="#fff"></path></svg>