<svg class="MuiSvgIcon-root MuiSvgIcon-fontSizeMedium css-b933ss" focusable="false" aria-hidden="true" viewBox="0 0 21 20" width="21" height="20" fill="none" xmlns="http://www.w3.org/2000/svg" style="font-size: 24px;"><path d="M18.7352 9.955V4.54053H20.5192V9.94382H18.7272L18.7352 9.955Z" fill="currentColor"></path><path d="M2.27613 9.92493H0.519226V4.55518H2.27613V9.92493Z" fill="currentColor"></path><path d="M7.77681 2.71054L4.10327 2.68977L4.11285 2.69935V0.894531H7.77042V2.72172L7.77681 2.71054Z" fill="currentColor"></path><path d="M16.8664 2.72473C15.8464 2.71195 14.8258 2.69917 13.8046 2.68639C13.6353 2.68639 13.466 2.68639 13.2823 2.68639V0.884766H16.8553V2.73271L16.8664 2.72473Z" fill="currentColor"></path><path d="M18.7272 9.94434V11.7827H16.8856L16.8968 11.7939V9.95552H18.7352L18.7272 9.94434Z" fill="currentColor"></path><path d="M5.92891 13.6334L4.172 13.5504C4.14006 12.9626 4.10812 12.3892 4.07617 11.8142V11.8222H5.91773V13.6414L5.92891 13.6334Z" fill="currentColor"></path><path d="M11.4488 17.1905V19.0176H9.65833V17.1665L9.64874 17.1761L11.46 17.2016L11.4488 17.1905Z" fill="currentColor"></path><path d="M9.62324 4.5294L7.77529 4.44795V2.71021L7.76093 2.72139H9.62324V4.53899V4.5294Z" fill="currentColor"></path><path d="M16.8553 2.73273H18.6952V4.46248H16.8681C16.8681 3.87312 16.8681 3.29813 16.8681 2.72314L16.8553 2.73273Z" fill="currentColor"></path><path d="M9.65832 17.1666H7.80878V15.448H9.64714C9.64714 16.0294 9.64714 16.606 9.64714 17.1809L9.65832 17.1666Z" fill="currentColor"></path><path d="M5.91766 13.6417H7.75124V15.3554H5.93044C5.93044 14.7805 5.93044 14.206 5.93044 13.6321L5.91766 13.6417Z" fill="currentColor"></path><path d="M16.8856 11.7825V13.5538H15.1159V11.7968H16.8968L16.8856 11.7825Z" fill="currentColor"></path><path d="M4.0826 11.8144L2.36084 11.7282V9.98242H4.07622V11.8224L4.0826 11.8144Z" fill="currentColor"></path><path d="M9.62323 4.54097H11.3801V6.27551H9.62323V4.52979V4.54097Z" fill="currentColor"></path><path d="M4.09691 2.6897V4.44661H2.36395V2.6897H4.10649H4.09691Z" fill="currentColor"></path><path d="M11.4695 4.45431V2.71338H13.2121V4.45431H11.4695Z" fill="currentColor"></path><path d="M15.0537 13.6321V15.3507H13.2968V13.6321H15.0537Z" fill="currentColor"></path><path d="M11.46 17.2049V15.448H13.2169V17.1937H11.4488L11.46 17.2049Z" fill="currentColor"></path></svg>