<svg class="MuiSvgIcon-root MuiSvgIcon-fontSizeMedium css-b933ss" focusable="false" aria-hidden="true" viewBox="0 0 29 28" width="29" height="28" fill="none" xmlns="http://www.w3.org/2000/svg"><path d="M10.5613 3.21761L8.8125 4.96645L6.78133 2.93411L8.47067 1.24478L7.22583 -0.0012207L0.5 6.72461L1.74483 7.96945L3.43417 6.28011L5.4665 8.31245L3.71767 10.0613L18.8377 25.1813L25.1365 25.3259L27.807 27.9964L29.0367 27.8634L25.819 24.6458L25.6743 18.3469L10.5613 3.21761ZM10.5613 5.21028L23.698 18.3469L18.8377 23.1653L11.448 15.7779L13.8747 13.3513L12.848 12.3246L10.4213 14.7513L8.613 12.9429L11.0397 10.5163L10.013 9.48961L7.58633 11.9163L5.72667 10.0566L10.5613 5.21028Z" fill="#fff"></path></svg>